<svg width="155" height="172" viewBox="0 0 155 172" fill="none" xmlns="http://www.w3.org/2000/svg">
<path d="M58.6489 81.8433L51.7948 84.7582L51.7299 88.8823M58.6489 81.8433L65.2469 81.114L67.6581 72.7721L69.4567 69.1491L73.9839 65.185L70.1697 64.0826M58.6489 81.8433L59.5174 74.9386L61.5801 73.6517M70.1697 64.0826L63.2151 67.3451L63.6429 72.3648L61.5801 73.6517M70.1697 64.0826L67.0489 63.1805L65.636 56.3696L68.5753 52.6998L72.6457 51.6165L77.0725 48L76.7613 51.6763L79.5353 52.4781L82.6659 50.7466L83.1487 54.2757L89.8277 58.4659L94.5364 59.0737L100.14 59.1867L106.417 64.7672L98.1401 63.5048L90.3008 64.6285L83.6672 61.5813L78.3557 63.059L77.2505 66.8824L80.0699 68.8272L80.5074 71.2134L85.7087 72.7167L79.7037 73.994L78.106 76.9218L80.2236 80.3148M61.5801 73.6517L57.492 72.8467L54.6532 76.1689L48 78.3887L49.429 94.2432L51.7299 88.8823M51.7299 88.8823L51.6651 93.0064L56.0983 101.067L56.9766 91.5287L66.6144 86.782L70.9116 91.4136L71.5402 95.7381M71.5402 95.7381L67.7616 98.4121L68.8731 106.266L72.0651 114.721L73.5267 108.364L75.672 104.841M71.5402 95.7381L75.7466 98.0838L75.753 109.761L79.2723 123.583L83.8029 105.308L86.6871 103.129L90.32 99.6597L105.697 98.4549L98.2792 92.9213L95.8973 93.3627L90.0025 91.6589L93.846 84.8608L90.4077 75.958L90.7252 83.9588L84.2179 86.974L81.4082 82.3957M81.4082 82.3957L81.4712 80.5994L86.2273 74.5976L80.3996 79.9516L80.2236 80.3148M81.4082 82.3957L80.2236 80.3148" stroke="#5DBFB7"/>
</svg>
